<?xml version="1.0" encoding="utf-8"?>
<!-- Generator: Adobe Illustrator 16.0.0, SVG Export Plug-In . SVG Version: 6.00 Build 0)  -->
<!DOCTYPE svg PUBLIC "-//W3C//DTD SVG 1.1//EN" "http://www.w3.org/Graphics/SVG/1.1/DTD/svg11.dtd">
<svg version="1.1" xmlns="http://www.w3.org/2000/svg" xmlns:xlink="http://www.w3.org/1999/xlink" x="0px" y="0px" width="900px"
	 height="3000px" viewBox="0 0 900 3000" enable-background="new 0 0 900 3000" xml:space="preserve">
<g id="bg">
	<rect fill="#444349" width="900" height="3000"/>
</g>
<g id="grids">
	<line opacity="0.1" fill="none" stroke="#FFFFFF" stroke-miterlimit="10" x1="900" y1="50.5" x2="0" y2="50.5"/>
	<line opacity="0.1" fill="none" stroke="#FFFFFF" stroke-miterlimit="10" x1="900" y1="100.5" x2="0" y2="100.5"/>
	<line opacity="0.1" fill="none" stroke="#FFFFFF" stroke-miterlimit="10" x1="900" y1="150.5" x2="0" y2="150.5"/>
	<line opacity="0.1" fill="none" stroke="#FFFFFF" stroke-miterlimit="10" x1="900" y1="200.5" x2="0" y2="200.5"/>
	<line opacity="0.1" fill="none" stroke="#FFFFFF" stroke-miterlimit="10" x1="900" y1="250.5" x2="0" y2="250.5"/>
	<line opacity="0.1" fill="none" stroke="#FFFFFF" stroke-miterlimit="10" x1="900" y1="300.5" x2="0" y2="300.5"/>
	<line opacity="0.1" fill="none" stroke="#FFFFFF" stroke-miterlimit="10" x1="900" y1="350.5" x2="0" y2="350.5"/>
	<line opacity="0.1" fill="none" stroke="#FFFFFF" stroke-miterlimit="10" x1="900" y1="400.5" x2="0" y2="400.5"/>
	<line opacity="0.1" fill="none" stroke="#FFFFFF" stroke-miterlimit="10" x1="900" y1="450.5" x2="0" y2="450.5"/>
	<line opacity="0.1" fill="none" stroke="#FFFFFF" stroke-miterlimit="10" x1="900" y1="500.5" x2="0" y2="500.5"/>
	<line opacity="0.1" fill="none" stroke="#FFFFFF" stroke-miterlimit="10" x1="900" y1="550.5" x2="0" y2="550.5"/>
	<line opacity="0.1" fill="none" stroke="#FFFFFF" stroke-miterlimit="10" x1="900" y1="600.5" x2="0" y2="600.5"/>
	<line opacity="0.1" fill="none" stroke="#FFFFFF" stroke-miterlimit="10" x1="900" y1="650.5" x2="0" y2="650.5"/>
	<line opacity="0.1" fill="none" stroke="#FFFFFF" stroke-miterlimit="10" x1="900" y1="700.5" x2="0" y2="700.5"/>
	<line opacity="0.1" fill="none" stroke="#FFFFFF" stroke-miterlimit="10" x1="900" y1="750.5" x2="0" y2="750.5"/>
	<line opacity="0.1" fill="none" stroke="#FFFFFF" stroke-miterlimit="10" x1="900" y1="800.5" x2="0" y2="800.5"/>
	<line opacity="0.1" fill="none" stroke="#FFFFFF" stroke-miterlimit="10" x1="900" y1="850.5" x2="0" y2="850.5"/>
	<line opacity="0.1" fill="none" stroke="#FFFFFF" stroke-miterlimit="10" x1="900" y1="900.5" x2="0" y2="900.5"/>
	<line opacity="0.1" fill="none" stroke="#FFFFFF" stroke-miterlimit="10" x1="900" y1="950.5" x2="0" y2="950.5"/>
	<line opacity="0.1" fill="none" stroke="#FFFFFF" stroke-miterlimit="10" x1="900" y1="1000.5" x2="0" y2="1000.5"/>
	<line opacity="0.1" fill="none" stroke="#FFFFFF" stroke-miterlimit="10" x1="900" y1="1050.5" x2="0" y2="1050.5"/>
	<line opacity="0.1" fill="none" stroke="#FFFFFF" stroke-miterlimit="10" x1="900" y1="1100.5" x2="0" y2="1100.5"/>
	<line opacity="0.1" fill="none" stroke="#FFFFFF" stroke-miterlimit="10" x1="900" y1="1150.5" x2="0" y2="1150.5"/>
	<line opacity="0.1" fill="none" stroke="#FFFFFF" stroke-miterlimit="10" x1="900" y1="1200.5" x2="0" y2="1200.5"/>
	<line opacity="0.1" fill="none" stroke="#FFFFFF" stroke-miterlimit="10" x1="900" y1="1250.5" x2="0" y2="1250.5"/>
	<line opacity="0.1" fill="none" stroke="#FFFFFF" stroke-miterlimit="10" x1="900" y1="1300.5" x2="0" y2="1300.5"/>
	<line opacity="0.1" fill="none" stroke="#FFFFFF" stroke-miterlimit="10" x1="900" y1="1350.5" x2="0" y2="1350.5"/>
	<line opacity="0.1" fill="none" stroke="#FFFFFF" stroke-miterlimit="10" x1="900" y1="1400.5" x2="0" y2="1400.5"/>
	<line opacity="0.1" fill="none" stroke="#FFFFFF" stroke-miterlimit="10" x1="900" y1="1450.5" x2="0" y2="1450.5"/>
	<line opacity="0.1" fill="none" stroke="#FFFFFF" stroke-miterlimit="10" x1="900" y1="1500.5" x2="0" y2="1500.5"/>
	<line opacity="0.1" fill="none" stroke="#FFFFFF" stroke-miterlimit="10" x1="900" y1="1550.5" x2="0" y2="1550.5"/>
	<line opacity="0.1" fill="none" stroke="#FFFFFF" stroke-miterlimit="10" x1="900" y1="1600.5" x2="0" y2="1600.5"/>
	<line opacity="0.1" fill="none" stroke="#FFFFFF" stroke-miterlimit="10" x1="900" y1="1650.5" x2="0" y2="1650.5"/>
	<line opacity="0.1" fill="none" stroke="#FFFFFF" stroke-miterlimit="10" x1="900" y1="1700.5" x2="0" y2="1700.5"/>
	<line opacity="0.1" fill="none" stroke="#FFFFFF" stroke-miterlimit="10" x1="900" y1="1750.5" x2="0" y2="1750.5"/>
	<line opacity="0.1" fill="none" stroke="#FFFFFF" stroke-miterlimit="10" x1="900" y1="1800.5" x2="0" y2="1800.5"/>
	<line opacity="0.1" fill="none" stroke="#FFFFFF" stroke-miterlimit="10" x1="900" y1="1850.5" x2="0" y2="1850.5"/>
	<line opacity="0.1" fill="none" stroke="#FFFFFF" stroke-miterlimit="10" x1="900" y1="1900.5" x2="0" y2="1900.5"/>
	<line opacity="0.1" fill="none" stroke="#FFFFFF" stroke-miterlimit="10" x1="900" y1="1950.5" x2="0" y2="1950.5"/>
	<line opacity="0.1" fill="none" stroke="#FFFFFF" stroke-miterlimit="10" x1="900" y1="2000.5" x2="0" y2="2000.5"/>
	<line opacity="0.1" fill="none" stroke="#FFFFFF" stroke-miterlimit="10" x1="900" y1="2050.5" x2="0" y2="2050.5"/>
	<line opacity="0.1" fill="none" stroke="#FFFFFF" stroke-miterlimit="10" x1="900" y1="2100.5" x2="0" y2="2100.5"/>
	<line opacity="0.1" fill="none" stroke="#FFFFFF" stroke-miterlimit="10" x1="900" y1="2150.5" x2="0" y2="2150.5"/>
	<line opacity="0.1" fill="none" stroke="#FFFFFF" stroke-miterlimit="10" x1="900" y1="2200.5" x2="0" y2="2200.5"/>
	<line opacity="0.1" fill="none" stroke="#FFFFFF" stroke-miterlimit="10" x1="900" y1="2250.5" x2="0" y2="2250.5"/>
	<line opacity="0.1" fill="none" stroke="#FFFFFF" stroke-miterlimit="10" x1="900" y1="2300.5" x2="0" y2="2300.5"/>
	<line opacity="0.1" fill="none" stroke="#FFFFFF" stroke-miterlimit="10" x1="900" y1="2350.5" x2="0" y2="2350.5"/>
	<line opacity="0.1" fill="none" stroke="#FFFFFF" stroke-miterlimit="10" x1="900" y1="2400.5" x2="0" y2="2400.5"/>
	<line opacity="0.1" fill="none" stroke="#FFFFFF" stroke-miterlimit="10" x1="900" y1="2450.5" x2="0" y2="2450.5"/>
	<line opacity="0.1" fill="none" stroke="#FFFFFF" stroke-miterlimit="10" x1="900" y1="2500.5" x2="0" y2="2500.5"/>
	<line opacity="0.1" fill="none" stroke="#FFFFFF" stroke-miterlimit="10" x1="900" y1="2550.5" x2="0" y2="2550.5"/>
	<line opacity="0.1" fill="none" stroke="#FFFFFF" stroke-miterlimit="10" x1="900" y1="2600.5" x2="0" y2="2600.5"/>
	<line opacity="0.1" fill="none" stroke="#FFFFFF" stroke-miterlimit="10" x1="900" y1="2650.5" x2="0" y2="2650.5"/>
	<line opacity="0.1" fill="none" stroke="#FFFFFF" stroke-miterlimit="10" x1="900" y1="2700.5" x2="0" y2="2700.5"/>
	<line opacity="0.1" fill="none" stroke="#FFFFFF" stroke-miterlimit="10" x1="900" y1="2750.5" x2="0" y2="2750.5"/>
	<line opacity="0.1" fill="none" stroke="#FFFFFF" stroke-miterlimit="10" x1="900" y1="2800.5" x2="0" y2="2800.5"/>
	<line opacity="0.1" fill="none" stroke="#FFFFFF" stroke-miterlimit="10" x1="900" y1="2850.5" x2="0" y2="2850.5"/>
	<line opacity="0.1" fill="none" stroke="#FFFFFF" stroke-miterlimit="10" x1="900" y1="2900.5" x2="0" y2="2900.5"/>
	<line opacity="0.1" fill="none" stroke="#FFFFFF" stroke-miterlimit="10" x1="900" y1="2950.5" x2="0" y2="2950.5"/>
	<line opacity="0.1" fill="none" stroke="#FFFFFF" stroke-miterlimit="10" x1="49.5" y1="3000" x2="49.5" y2="0"/>
	<line opacity="0.1" fill="none" stroke="#FFFFFF" stroke-miterlimit="10" x1="0.5" y1="3000" x2="0.5" y2="0"/>
	<line opacity="0.1" fill="none" stroke="#FFFFFF" stroke-miterlimit="10" x1="99.5" y1="3000" x2="99.5" y2="0"/>
	<line opacity="0.1" fill="none" stroke="#FFFFFF" stroke-miterlimit="10" x1="149.5" y1="3000" x2="149.5" y2="0"/>
	<line opacity="0.1" fill="none" stroke="#FFFFFF" stroke-miterlimit="10" x1="199.5" y1="3000" x2="199.5" y2="0"/>
	<line opacity="0.1" fill="none" stroke="#FFFFFF" stroke-miterlimit="10" x1="249.5" y1="3000" x2="249.5" y2="0"/>
	<line opacity="0.1" fill="none" stroke="#FFFFFF" stroke-miterlimit="10" x1="299.5" y1="3000" x2="299.5" y2="0"/>
	<line opacity="0.1" fill="none" stroke="#FFFFFF" stroke-miterlimit="10" x1="349.5" y1="3000" x2="349.5" y2="0"/>
	<line opacity="0.1" fill="none" stroke="#FFFFFF" stroke-miterlimit="10" x1="399.5" y1="3000" x2="399.5" y2="0"/>
	<line opacity="0.1" fill="none" stroke="#FFFFFF" stroke-miterlimit="10" x1="449.5" y1="3000" x2="449.5" y2="0"/>
	<line opacity="0.1" fill="none" stroke="#FFFFFF" stroke-miterlimit="10" x1="499.5" y1="3000" x2="499.5" y2="0"/>
	<line opacity="0.1" fill="none" stroke="#FFFFFF" stroke-miterlimit="10" x1="549.5" y1="3000" x2="549.5" y2="0"/>
	<line opacity="0.1" fill="none" stroke="#FFFFFF" stroke-miterlimit="10" x1="599.5" y1="3000" x2="599.5" y2="0"/>
	<line opacity="0.1" fill="none" stroke="#FFFFFF" stroke-miterlimit="10" x1="649.5" y1="3000" x2="649.5" y2="0"/>
	<line opacity="0.1" fill="none" stroke="#FFFFFF" stroke-miterlimit="10" x1="699.5" y1="3000" x2="699.5" y2="0"/>
	<line opacity="0.1" fill="none" stroke="#FFFFFF" stroke-miterlimit="10" x1="749.5" y1="3000" x2="749.5" y2="0"/>
	<line opacity="0.1" fill="none" stroke="#FFFFFF" stroke-miterlimit="10" x1="799.5" y1="3000" x2="799.5" y2="0"/>
	<line opacity="0.1" fill="none" stroke="#FFFFFF" stroke-miterlimit="10" x1="849.5" y1="3000" x2="849.5" y2="0"/>
	<line opacity="0.1" fill="none" stroke="#FFFFFF" stroke-miterlimit="10" x1="899.5" y1="3000" x2="899.5" y2="0"/>
</g>
<g id="numV">
	<text transform="matrix(1 0 0 1 35.082 46.9976)" opacity="0.2"><tspan x="0" y="0" fill="#FFFFFF" font-family="'OpenSansLight-Italic'" font-size="9">50</tspan><tspan x="-4.957" y="50" fill="#FFFFFF" font-family="'OpenSansLight-Italic'" font-size="9">100</tspan><tspan x="-4.957" y="100" fill="#FFFFFF" font-family="'OpenSansLight-Italic'" font-size="9">150</tspan><tspan x="-4.957" y="150" fill="#FFFFFF" font-family="'OpenSansLight-Italic'" font-size="9">200</tspan><tspan x="-4.957" y="200" fill="#FFFFFF" font-family="'OpenSansLight-Italic'" font-size="9">250</tspan><tspan x="-4.957" y="250" fill="#FFFFFF" font-family="'OpenSansLight-Italic'" font-size="9">300</tspan><tspan x="-4.957" y="300" fill="#FFFFFF" font-family="'OpenSansLight-Italic'" font-size="9">350</tspan><tspan x="-4.957" y="350" fill="#FFFFFF" font-family="'OpenSansLight-Italic'" font-size="9">400</tspan><tspan x="-4.957" y="400" fill="#FFFFFF" font-family="'OpenSansLight-Italic'" font-size="9">450</tspan><tspan x="-4.957" y="450" fill="#FFFFFF" font-family="'OpenSansLight-Italic'" font-size="9">500</tspan><tspan x="-4.957" y="500" fill="#FFFFFF" font-family="'OpenSansLight-Italic'" font-size="9">550</tspan><tspan x="-4.957" y="550" fill="#FFFFFF" font-family="'OpenSansLight-Italic'" font-size="9">600</tspan><tspan x="-4.957" y="600" fill="#FFFFFF" font-family="'OpenSansLight-Italic'" font-size="9">650</tspan><tspan x="-4.957" y="650" fill="#FFFFFF" font-family="'OpenSansLight-Italic'" font-size="9">700</tspan><tspan x="-4.957" y="700" fill="#FFFFFF" font-family="'OpenSansLight-Italic'" font-size="9">750</tspan><tspan x="-4.957" y="750" fill="#FFFFFF" font-family="'OpenSansLight-Italic'" font-size="9">800</tspan><tspan x="-4.957" y="800" fill="#FFFFFF" font-family="'OpenSansLight-Italic'" font-size="9">850</tspan><tspan x="-4.957" y="850" fill="#FFFFFF" font-family="'OpenSansLight-Italic'" font-size="9">900</tspan><tspan x="-4.957" y="900" fill="#FFFFFF" font-family="'OpenSansLight-Italic'" font-size="9">950</tspan><tspan x="-9.914" y="950" fill="#FFFFFF" font-family="'OpenSansLight-Italic'" font-size="9">1000</tspan><tspan x="-9.914" y="1000" fill="#FFFFFF" font-family="'OpenSansLight-Italic'" font-size="9">1050</tspan><tspan x="-9.914" y="1050" fill="#FFFFFF" font-family="'OpenSansLight-Italic'" font-size="9">1100</tspan><tspan x="-9.914" y="1100" fill="#FFFFFF" font-family="'OpenSansLight-Italic'" font-size="9">1150</tspan><tspan x="-9.914" y="1150" fill="#FFFFFF" font-family="'OpenSansLight-Italic'" font-size="9">1200</tspan><tspan x="-9.914" y="1200" fill="#FFFFFF" font-family="'OpenSansLight-Italic'" font-size="9">1250</tspan><tspan x="-9.914" y="1250" fill="#FFFFFF" font-family="'OpenSansLight-Italic'" font-size="9">1300</tspan><tspan x="-9.914" y="1300" fill="#FFFFFF" font-family="'OpenSansLight-Italic'" font-size="9">1350</tspan><tspan x="-9.914" y="1350" fill="#FFFFFF" font-family="'OpenSansLight-Italic'" font-size="9">1400</tspan><tspan x="-9.914" y="1400" fill="#FFFFFF" font-family="'OpenSansLight-Italic'" font-size="9">1450</tspan><tspan x="-9.914" y="1450" fill="#FFFFFF" font-family="'OpenSansLight-Italic'" font-size="9">1500</tspan><tspan x="-9.914" y="1500" fill="#FFFFFF" font-family="'OpenSansLight-Italic'" font-size="9">1550</tspan><tspan x="-9.914" y="1550" fill="#FFFFFF" font-family="'OpenSansLight-Italic'" font-size="9">1600</tspan><tspan x="-9.914" y="1600" fill="#FFFFFF" font-family="'OpenSansLight-Italic'" font-size="9">1650</tspan><tspan x="-9.914" y="1650" fill="#FFFFFF" font-family="'OpenSansLight-Italic'" font-size="9">1700</tspan><tspan x="-9.914" y="1700" fill="#FFFFFF" font-family="'OpenSansLight-Italic'" font-size="9">1750</tspan><tspan x="-9.914" y="1750" fill="#FFFFFF" font-family="'OpenSansLight-Italic'" font-size="9">1800</tspan><tspan x="-9.914" y="1800" fill="#FFFFFF" font-family="'OpenSansLight-Italic'" font-size="9">1850</tspan><tspan x="-9.914" y="1850" fill="#FFFFFF" font-family="'OpenSansLight-Italic'" font-size="9">1900</tspan><tspan x="-9.914" y="1900" fill="#FFFFFF" font-family="'OpenSansLight-Italic'" font-size="9">1950</tspan><tspan x="-9.914" y="1950" fill="#FFFFFF" font-family="'OpenSansLight-Italic'" font-size="9">2000</tspan><tspan x="-9.914" y="2000" fill="#FFFFFF" font-family="'OpenSansLight-Italic'" font-size="9">2050</tspan><tspan x="-9.914" y="2050" fill="#FFFFFF" font-family="'OpenSansLight-Italic'" font-size="9">2100</tspan><tspan x="-9.914" y="2100" fill="#FFFFFF" font-family="'OpenSansLight-Italic'" font-size="9">2150</tspan><tspan x="-9.914" y="2150" fill="#FFFFFF" font-family="'OpenSansLight-Italic'" font-size="9">2200</tspan><tspan x="-9.914" y="2200" fill="#FFFFFF" font-family="'OpenSansLight-Italic'" font-size="9">2250</tspan><tspan x="-9.914" y="2250" fill="#FFFFFF" font-family="'OpenSansLight-Italic'" font-size="9">2300</tspan><tspan x="-9.914" y="2300" fill="#FFFFFF" font-family="'OpenSansLight-Italic'" font-size="9">2350</tspan><tspan x="-9.914" y="2350" fill="#FFFFFF" font-family="'OpenSansLight-Italic'" font-size="9">2400</tspan><tspan x="-9.914" y="2400" fill="#FFFFFF" font-family="'OpenSansLight-Italic'" font-size="9">2450</tspan><tspan x="-9.914" y="2450" fill="#FFFFFF" font-family="'OpenSansLight-Italic'" font-size="9">2500</tspan><tspan x="-9.914" y="2500" fill="#FFFFFF" font-family="'OpenSansLight-Italic'" font-size="9">2550</tspan><tspan x="-9.914" y="2550" fill="#FFFFFF" font-family="'OpenSansLight-Italic'" font-size="9">2600</tspan><tspan x="-9.914" y="2600" fill="#FFFFFF" font-family="'OpenSansLight-Italic'" font-size="9">2650</tspan><tspan x="-9.914" y="2650" fill="#FFFFFF" font-family="'OpenSansLight-Italic'" font-size="9">2700</tspan><tspan x="-9.914" y="2700" fill="#FFFFFF" font-family="'OpenSansLight-Italic'" font-size="9">2750</tspan><tspan x="-9.914" y="2750" fill="#FFFFFF" font-family="'OpenSansLight-Italic'" font-size="9">2800</tspan><tspan x="-9.914" y="2800" fill="#FFFFFF" font-family="'OpenSansLight-Italic'" font-size="9">2850</tspan><tspan x="-9.914" y="2850" fill="#FFFFFF" font-family="'OpenSansLight-Italic'" font-size="9">2900</tspan><tspan x="-9.914" y="2900" fill="#FFFFFF" font-family="'OpenSansLight-Italic'" font-size="9">2950</tspan><tspan x="-9.914" y="2950" fill="#FFFFFF" font-family="'OpenSansLight-Italic'" font-size="9">3000</tspan></text>
</g>
<g id="numH">
	<g>
		
			<text transform="matrix(1 0 0 1 80.125 496.9976)" opacity="0.2" fill="#FFFFFF" font-family="'OpenSansLight-Italic'" font-size="9">100</text>
		
			<text transform="matrix(1 0 0 1 130.125 496.9976)" opacity="0.2" fill="#FFFFFF" font-family="'OpenSansLight-Italic'" font-size="9">150</text>
		
			<text transform="matrix(1 0 0 1 180.125 496.9976)" opacity="0.2" fill="#FFFFFF" font-family="'OpenSansLight-Italic'" font-size="9">200</text>
		
			<text transform="matrix(1 0 0 1 230.125 496.9976)" opacity="0.2" fill="#FFFFFF" font-family="'OpenSansLight-Italic'" font-size="9">250</text>
		
			<text transform="matrix(1 0 0 1 280.125 496.9976)" opacity="0.2" fill="#FFFFFF" font-family="'OpenSansLight-Italic'" font-size="9">300</text>
		
			<text transform="matrix(1 0 0 1 330.125 496.9976)" opacity="0.2" fill="#FFFFFF" font-family="'OpenSansLight-Italic'" font-size="9">350</text>
		
			<text transform="matrix(1 0 0 1 380.125 496.9976)" opacity="0.2" fill="#FFFFFF" font-family="'OpenSansLight-Italic'" font-size="9">400</text>
		
			<text transform="matrix(1 0 0 1 430.125 496.9976)" opacity="0.2" fill="#FFFFFF" font-family="'OpenSansLight-Italic'" font-size="9">450</text>
		
			<text transform="matrix(1 0 0 1 480.125 496.9976)" opacity="0.2" fill="#FFFFFF" font-family="'OpenSansLight-Italic'" font-size="9">500</text>
		
			<text transform="matrix(1 0 0 1 530.125 496.9976)" opacity="0.2" fill="#FFFFFF" font-family="'OpenSansLight-Italic'" font-size="9">550</text>
		
			<text transform="matrix(1 0 0 1 580.125 496.9976)" opacity="0.2" fill="#FFFFFF" font-family="'OpenSansLight-Italic'" font-size="9">600</text>
		
			<text transform="matrix(1 0 0 1 630.125 496.9976)" opacity="0.2" fill="#FFFFFF" font-family="'OpenSansLight-Italic'" font-size="9">650</text>
		
			<text transform="matrix(1 0 0 1 680.125 496.9976)" opacity="0.2" fill="#FFFFFF" font-family="'OpenSansLight-Italic'" font-size="9">700</text>
		
			<text transform="matrix(1 0 0 1 730.125 496.9976)" opacity="0.2" fill="#FFFFFF" font-family="'OpenSansLight-Italic'" font-size="9">750</text>
		
			<text transform="matrix(1 0 0 1 780.125 496.9976)" opacity="0.2" fill="#FFFFFF" font-family="'OpenSansLight-Italic'" font-size="9">800</text>
		
			<text transform="matrix(1 0 0 1 830.125 496.9976)" opacity="0.2" fill="#FFFFFF" font-family="'OpenSansLight-Italic'" font-size="9">850</text>
		
			<text transform="matrix(1 0 0 1 880.125 496.9976)" opacity="0.2" fill="#FFFFFF" font-family="'OpenSansLight-Italic'" font-size="9">900</text>
	</g>
	<g>
		
			<text transform="matrix(1 0 0 1 80.125 996.9976)" opacity="0.2" fill="#FFFFFF" font-family="'OpenSansLight-Italic'" font-size="9">100</text>
		
			<text transform="matrix(1 0 0 1 130.125 996.9976)" opacity="0.2" fill="#FFFFFF" font-family="'OpenSansLight-Italic'" font-size="9">150</text>
		
			<text transform="matrix(1 0 0 1 180.125 996.9976)" opacity="0.2" fill="#FFFFFF" font-family="'OpenSansLight-Italic'" font-size="9">200</text>
		
			<text transform="matrix(1 0 0 1 230.125 996.9976)" opacity="0.2" fill="#FFFFFF" font-family="'OpenSansLight-Italic'" font-size="9">250</text>
		
			<text transform="matrix(1 0 0 1 280.125 996.9976)" opacity="0.2" fill="#FFFFFF" font-family="'OpenSansLight-Italic'" font-size="9">300</text>
		
			<text transform="matrix(1 0 0 1 330.125 996.9976)" opacity="0.2" fill="#FFFFFF" font-family="'OpenSansLight-Italic'" font-size="9">350</text>
		
			<text transform="matrix(1 0 0 1 380.125 996.9976)" opacity="0.2" fill="#FFFFFF" font-family="'OpenSansLight-Italic'" font-size="9">400</text>
		
			<text transform="matrix(1 0 0 1 430.125 996.9976)" opacity="0.2" fill="#FFFFFF" font-family="'OpenSansLight-Italic'" font-size="9">450</text>
		
			<text transform="matrix(1 0 0 1 480.125 996.9976)" opacity="0.2" fill="#FFFFFF" font-family="'OpenSansLight-Italic'" font-size="9">500</text>
		
			<text transform="matrix(1 0 0 1 530.125 996.9976)" opacity="0.2" fill="#FFFFFF" font-family="'OpenSansLight-Italic'" font-size="9">550</text>
		
			<text transform="matrix(1 0 0 1 580.125 996.9976)" opacity="0.2" fill="#FFFFFF" font-family="'OpenSansLight-Italic'" font-size="9">600</text>
		
			<text transform="matrix(1 0 0 1 630.125 996.9976)" opacity="0.2" fill="#FFFFFF" font-family="'OpenSansLight-Italic'" font-size="9">650</text>
		
			<text transform="matrix(1 0 0 1 680.125 996.9976)" opacity="0.2" fill="#FFFFFF" font-family="'OpenSansLight-Italic'" font-size="9">700</text>
		
			<text transform="matrix(1 0 0 1 730.125 996.9976)" opacity="0.2" fill="#FFFFFF" font-family="'OpenSansLight-Italic'" font-size="9">750</text>
		
			<text transform="matrix(1 0 0 1 780.125 996.9976)" opacity="0.2" fill="#FFFFFF" font-family="'OpenSansLight-Italic'" font-size="9">800</text>
		
			<text transform="matrix(1 0 0 1 830.125 996.9976)" opacity="0.2" fill="#FFFFFF" font-family="'OpenSansLight-Italic'" font-size="9">850</text>
		
			<text transform="matrix(1 0 0 1 880.125 996.9976)" opacity="0.2" fill="#FFFFFF" font-family="'OpenSansLight-Italic'" font-size="9">900</text>
	</g>
	<g>
		
			<text transform="matrix(1 0 0 1 80.125 1496.998)" opacity="0.2" fill="#FFFFFF" font-family="'OpenSansLight-Italic'" font-size="9">100</text>
		
			<text transform="matrix(1 0 0 1 130.125 1496.998)" opacity="0.2" fill="#FFFFFF" font-family="'OpenSansLight-Italic'" font-size="9">150</text>
		
			<text transform="matrix(1 0 0 1 180.125 1496.998)" opacity="0.2" fill="#FFFFFF" font-family="'OpenSansLight-Italic'" font-size="9">200</text>
		
			<text transform="matrix(1 0 0 1 230.125 1496.998)" opacity="0.2" fill="#FFFFFF" font-family="'OpenSansLight-Italic'" font-size="9">250</text>
		
			<text transform="matrix(1 0 0 1 280.125 1496.998)" opacity="0.2" fill="#FFFFFF" font-family="'OpenSansLight-Italic'" font-size="9">300</text>
		
			<text transform="matrix(1 0 0 1 330.125 1496.998)" opacity="0.2" fill="#FFFFFF" font-family="'OpenSansLight-Italic'" font-size="9">350</text>
		
			<text transform="matrix(1 0 0 1 380.125 1496.998)" opacity="0.2" fill="#FFFFFF" font-family="'OpenSansLight-Italic'" font-size="9">400</text>
		
			<text transform="matrix(1 0 0 1 430.125 1496.998)" opacity="0.2" fill="#FFFFFF" font-family="'OpenSansLight-Italic'" font-size="9">450</text>
		
			<text transform="matrix(1 0 0 1 480.125 1496.998)" opacity="0.2" fill="#FFFFFF" font-family="'OpenSansLight-Italic'" font-size="9">500</text>
		
			<text transform="matrix(1 0 0 1 530.125 1496.998)" opacity="0.2" fill="#FFFFFF" font-family="'OpenSansLight-Italic'" font-size="9">550</text>
		
			<text transform="matrix(1 0 0 1 580.125 1496.998)" opacity="0.2" fill="#FFFFFF" font-family="'OpenSansLight-Italic'" font-size="9">600</text>
		
			<text transform="matrix(1 0 0 1 630.125 1496.998)" opacity="0.2" fill="#FFFFFF" font-family="'OpenSansLight-Italic'" font-size="9">650</text>
		
			<text transform="matrix(1 0 0 1 680.125 1496.998)" opacity="0.2" fill="#FFFFFF" font-family="'OpenSansLight-Italic'" font-size="9">700</text>
		
			<text transform="matrix(1 0 0 1 730.125 1496.998)" opacity="0.2" fill="#FFFFFF" font-family="'OpenSansLight-Italic'" font-size="9">750</text>
		
			<text transform="matrix(1 0 0 1 780.125 1496.998)" opacity="0.2" fill="#FFFFFF" font-family="'OpenSansLight-Italic'" font-size="9">800</text>
		
			<text transform="matrix(1 0 0 1 830.125 1496.998)" opacity="0.2" fill="#FFFFFF" font-family="'OpenSansLight-Italic'" font-size="9">850</text>
		
			<text transform="matrix(1 0 0 1 880.125 1496.998)" opacity="0.2" fill="#FFFFFF" font-family="'OpenSansLight-Italic'" font-size="9">900</text>
	</g>
	<g>
		
			<text transform="matrix(1 0 0 1 80.125 1996.998)" opacity="0.2" fill="#FFFFFF" font-family="'OpenSansLight-Italic'" font-size="9">100</text>
		
			<text transform="matrix(1 0 0 1 130.125 1996.998)" opacity="0.2" fill="#FFFFFF" font-family="'OpenSansLight-Italic'" font-size="9">150</text>
		
			<text transform="matrix(1 0 0 1 180.125 1996.998)" opacity="0.2" fill="#FFFFFF" font-family="'OpenSansLight-Italic'" font-size="9">200</text>
		
			<text transform="matrix(1 0 0 1 230.125 1996.998)" opacity="0.2" fill="#FFFFFF" font-family="'OpenSansLight-Italic'" font-size="9">250</text>
		
			<text transform="matrix(1 0 0 1 280.125 1996.998)" opacity="0.2" fill="#FFFFFF" font-family="'OpenSansLight-Italic'" font-size="9">300</text>
		
			<text transform="matrix(1 0 0 1 330.125 1996.998)" opacity="0.2" fill="#FFFFFF" font-family="'OpenSansLight-Italic'" font-size="9">350</text>
		
			<text transform="matrix(1 0 0 1 380.125 1996.998)" opacity="0.2" fill="#FFFFFF" font-family="'OpenSansLight-Italic'" font-size="9">400</text>
		
			<text transform="matrix(1 0 0 1 430.125 1996.998)" opacity="0.2" fill="#FFFFFF" font-family="'OpenSansLight-Italic'" font-size="9">450</text>
		
			<text transform="matrix(1 0 0 1 480.125 1996.998)" opacity="0.2" fill="#FFFFFF" font-family="'OpenSansLight-Italic'" font-size="9">500</text>
		
			<text transform="matrix(1 0 0 1 530.125 1996.998)" opacity="0.2" fill="#FFFFFF" font-family="'OpenSansLight-Italic'" font-size="9">550</text>
		
			<text transform="matrix(1 0 0 1 580.125 1996.998)" opacity="0.2" fill="#FFFFFF" font-family="'OpenSansLight-Italic'" font-size="9">600</text>
		
			<text transform="matrix(1 0 0 1 630.125 1996.998)" opacity="0.2" fill="#FFFFFF" font-family="'OpenSansLight-Italic'" font-size="9">650</text>
		
			<text transform="matrix(1 0 0 1 680.125 1996.998)" opacity="0.2" fill="#FFFFFF" font-family="'OpenSansLight-Italic'" font-size="9">700</text>
		
			<text transform="matrix(1 0 0 1 730.125 1996.998)" opacity="0.2" fill="#FFFFFF" font-family="'OpenSansLight-Italic'" font-size="9">750</text>
		
			<text transform="matrix(1 0 0 1 780.125 1996.998)" opacity="0.2" fill="#FFFFFF" font-family="'OpenSansLight-Italic'" font-size="9">800</text>
		
			<text transform="matrix(1 0 0 1 830.125 1996.998)" opacity="0.2" fill="#FFFFFF" font-family="'OpenSansLight-Italic'" font-size="9">850</text>
		
			<text transform="matrix(1 0 0 1 880.125 1996.998)" opacity="0.2" fill="#FFFFFF" font-family="'OpenSansLight-Italic'" font-size="9">900</text>
	</g>
	<g>
		
			<text transform="matrix(1 0 0 1 80.125 2496.998)" opacity="0.2" fill="#FFFFFF" font-family="'OpenSansLight-Italic'" font-size="9">100</text>
		
			<text transform="matrix(1 0 0 1 130.125 2496.998)" opacity="0.2" fill="#FFFFFF" font-family="'OpenSansLight-Italic'" font-size="9">150</text>
		
			<text transform="matrix(1 0 0 1 180.125 2496.998)" opacity="0.2" fill="#FFFFFF" font-family="'OpenSansLight-Italic'" font-size="9">200</text>
		
			<text transform="matrix(1 0 0 1 230.125 2496.998)" opacity="0.2" fill="#FFFFFF" font-family="'OpenSansLight-Italic'" font-size="9">250</text>
		
			<text transform="matrix(1 0 0 1 280.125 2496.998)" opacity="0.2" fill="#FFFFFF" font-family="'OpenSansLight-Italic'" font-size="9">300</text>
		
			<text transform="matrix(1 0 0 1 330.125 2496.998)" opacity="0.2" fill="#FFFFFF" font-family="'OpenSansLight-Italic'" font-size="9">350</text>
		
			<text transform="matrix(1 0 0 1 380.125 2496.998)" opacity="0.2" fill="#FFFFFF" font-family="'OpenSansLight-Italic'" font-size="9">400</text>
		
			<text transform="matrix(1 0 0 1 430.125 2496.998)" opacity="0.2" fill="#FFFFFF" font-family="'OpenSansLight-Italic'" font-size="9">450</text>
		
			<text transform="matrix(1 0 0 1 480.125 2496.998)" opacity="0.2" fill="#FFFFFF" font-family="'OpenSansLight-Italic'" font-size="9">500</text>
		
			<text transform="matrix(1 0 0 1 530.125 2496.998)" opacity="0.2" fill="#FFFFFF" font-family="'OpenSansLight-Italic'" font-size="9">550</text>
		
			<text transform="matrix(1 0 0 1 580.125 2496.998)" opacity="0.2" fill="#FFFFFF" font-family="'OpenSansLight-Italic'" font-size="9">600</text>
		
			<text transform="matrix(1 0 0 1 630.125 2496.998)" opacity="0.2" fill="#FFFFFF" font-family="'OpenSansLight-Italic'" font-size="9">650</text>
		
			<text transform="matrix(1 0 0 1 680.125 2496.998)" opacity="0.2" fill="#FFFFFF" font-family="'OpenSansLight-Italic'" font-size="9">700</text>
		
			<text transform="matrix(1 0 0 1 730.125 2496.998)" opacity="0.2" fill="#FFFFFF" font-family="'OpenSansLight-Italic'" font-size="9">750</text>
		
			<text transform="matrix(1 0 0 1 780.125 2496.998)" opacity="0.2" fill="#FFFFFF" font-family="'OpenSansLight-Italic'" font-size="9">800</text>
		
			<text transform="matrix(1 0 0 1 830.125 2496.998)" opacity="0.2" fill="#FFFFFF" font-family="'OpenSansLight-Italic'" font-size="9">850</text>
		
			<text transform="matrix(1 0 0 1 880.125 2496.998)" opacity="0.2" fill="#FFFFFF" font-family="'OpenSansLight-Italic'" font-size="9">900</text>
	</g>
	<g>
		
			<text transform="matrix(1 0 0 1 80.125 2996.998)" opacity="0.2" fill="#FFFFFF" font-family="'OpenSansLight-Italic'" font-size="9">100</text>
		
			<text transform="matrix(1 0 0 1 130.125 2996.998)" opacity="0.2" fill="#FFFFFF" font-family="'OpenSansLight-Italic'" font-size="9">150</text>
		
			<text transform="matrix(1 0 0 1 180.125 2996.998)" opacity="0.2" fill="#FFFFFF" font-family="'OpenSansLight-Italic'" font-size="9">200</text>
		
			<text transform="matrix(1 0 0 1 230.125 2996.998)" opacity="0.2" fill="#FFFFFF" font-family="'OpenSansLight-Italic'" font-size="9">250</text>
		
			<text transform="matrix(1 0 0 1 280.125 2996.998)" opacity="0.2" fill="#FFFFFF" font-family="'OpenSansLight-Italic'" font-size="9">300</text>
		
			<text transform="matrix(1 0 0 1 330.125 2996.998)" opacity="0.2" fill="#FFFFFF" font-family="'OpenSansLight-Italic'" font-size="9">350</text>
		
			<text transform="matrix(1 0 0 1 380.125 2996.998)" opacity="0.2" fill="#FFFFFF" font-family="'OpenSansLight-Italic'" font-size="9">400</text>
		
			<text transform="matrix(1 0 0 1 430.125 2996.998)" opacity="0.2" fill="#FFFFFF" font-family="'OpenSansLight-Italic'" font-size="9">450</text>
		
			<text transform="matrix(1 0 0 1 480.125 2996.998)" opacity="0.2" fill="#FFFFFF" font-family="'OpenSansLight-Italic'" font-size="9">500</text>
		
			<text transform="matrix(1 0 0 1 530.125 2996.998)" opacity="0.2" fill="#FFFFFF" font-family="'OpenSansLight-Italic'" font-size="9">550</text>
		
			<text transform="matrix(1 0 0 1 580.125 2996.998)" opacity="0.2" fill="#FFFFFF" font-family="'OpenSansLight-Italic'" font-size="9">600</text>
		
			<text transform="matrix(1 0 0 1 630.125 2996.998)" opacity="0.2" fill="#FFFFFF" font-family="'OpenSansLight-Italic'" font-size="9">650</text>
		
			<text transform="matrix(1 0 0 1 680.125 2996.998)" opacity="0.2" fill="#FFFFFF" font-family="'OpenSansLight-Italic'" font-size="9">700</text>
		
			<text transform="matrix(1 0 0 1 730.125 2996.998)" opacity="0.2" fill="#FFFFFF" font-family="'OpenSansLight-Italic'" font-size="9">750</text>
		
			<text transform="matrix(1 0 0 1 780.125 2996.998)" opacity="0.2" fill="#FFFFFF" font-family="'OpenSansLight-Italic'" font-size="9">800</text>
		
			<text transform="matrix(1 0 0 1 830.125 2996.998)" opacity="0.2" fill="#FFFFFF" font-family="'OpenSansLight-Italic'" font-size="9">850</text>
		
			<text transform="matrix(1 0 0 1 880.125 2996.998)" opacity="0.2" fill="#FFFFFF" font-family="'OpenSansLight-Italic'" font-size="9">900</text>
	</g>
</g>
<g id="temp" display="none">
	<g display="inline">
		<defs>
			<polygon id="SVGID_1_" points="900,675 0,225 0,675 899.651,225 			"/>
		</defs>
		<clipPath id="SVGID_2_">
			<use xlink:href="#SVGID_1_"  overflow="visible"/>
		</clipPath>
		<g clip-path="url(#SVGID_2_)">
			<image overflow="visible" width="560" height="560" xlink:href="pattern.png"  transform="matrix(1 0 0 1 170 170)">
			</image>
		</g>
	</g>
	<polygon display="inline" opacity="0.2" fill="#00A99D" points="50,850 50,949.959 900,1375 900,1275 	"/>
</g>
<g id="obj">
	<g id="noPointEvent" opacity="0.2">
		<path fill="none" stroke="#FFFF00" stroke-miterlimit="10" d="M850,450c0-64.428-15.238-125.294-42.297-179.202L449.506,449.941
			l358.282,179.091C834.795,575.167,850,514.36,850,450z"/>
		<path fill="none" stroke="#FFFF00" stroke-miterlimit="10" d="M92.061,271.268C65.148,325.059,50,385.76,50,450
			c0,64.233,15.145,124.927,42.051,178.713l357.456-178.772L92.061,271.268z"/>
		<polyline fill="none" stroke="#FFFF00" stroke-miterlimit="10" points="650,550 850,450 650,350 		"/>
		<polyline fill="none" stroke="#FFFF00" stroke-miterlimit="10" points="250,550 51,450 250.5,350 		"/>
		<line fill="none" stroke="#FFFF00" stroke-miterlimit="10" x1="750" y1="1400" x2="0" y2="1775"/>
		<polyline fill="none" stroke="#FFFF00" stroke-miterlimit="10" points="449.438,1250 549.5,1200 549.5,1100 449.438,1150 
			449.969,1250 749.203,1400.25 		"/>
		<line fill="none" stroke="#FFFF00" stroke-miterlimit="10" x1="550" y1="700" x2="900" y2="875"/>
		<line fill="none" stroke="#FFFF00" stroke-miterlimit="10" x1="850" y1="1250" x2="900" y2="1225"/>
		
			<line fill="none" stroke="#FFFF00" stroke-width="2" stroke-miterlimit="10" stroke-dasharray="2,2" x1="709" y1="1200" x2="709" y2="1300"/>
		
			<line fill="none" stroke="#FFFF00" stroke-width="2" stroke-miterlimit="10" stroke-dasharray="2,2" x1="589" y1="1200" x2="589" y2="1300"/>
		<g id="hole_1_">
			
				<ellipse fill="none" stroke="#FFFF00" stroke-width="2" stroke-miterlimit="10" stroke-dasharray="2,2" cx="650" cy="1300" rx="60" ry="30"/>
		</g>
		<g>
			<line fill="none" stroke="#FFFF00" stroke-miterlimit="10" x1="732.423" y1="1691.711" x2="449.577" y2="1550.289"/>
			<g id="hole_2_">
				<path fill="none" stroke="#FFFF00" stroke-miterlimit="10" d="M791,1621c0,55.23-89.538,100-200,100
					c-110.455,0-200-44.77-200-100s89.545-100,200-100C701.462,1521,791,1565.77,791,1621z"/>
			</g>
		</g>
	</g>
	<polygon opacity="0.2" fill="#00A99D" points="850,1250 50,850 50,949.959 750.024,1300 	"/>
	<polygon opacity="0.5" points="50,949.972 550,700 350,700 50,850.019 	"/>
	<g opacity="0.6">
		<rect x="350" y="500" fill="#00A99D" width="200" height="200"/>
	</g>
	<g>
		<defs>
			<polygon id="SVGID_3_" points="0,0 0,225 449.913,449.957 900,225 900,0 			"/>
		</defs>
		<clipPath id="SVGID_4_">
			<use xlink:href="#SVGID_3_"  overflow="visible"/>
		</clipPath>
		<polygon clip-path="url(#SVGID_4_)" fill="#00A99D" points="450,450 449.917,449.958 449.833,450 		"/>
		<g clip-path="url(#SVGID_4_)">
			<circle cx="450" cy="450" r="112"/>
		</g>
	</g>
	<g>
		<polygon fill="#FFFF00" points="550,700 350,700 550,600 		"/>
	</g>
	<g id="hole">
		<ellipse cx="650" cy="1200" rx="60" ry="30"/>
	</g>
	<g id="polyGroup" opacity="0.8">
		<polyline stroke="#FFFF00" stroke-miterlimit="10" points="650,550 450,450 650,350 		"/>
		<polygon stroke="#FFFF00" stroke-miterlimit="10" points="249.5,350 250,550 449,450 		"/>
	</g>
	
		<line fill="none" stroke="#FFFFFF" stroke-width="10" stroke-linecap="round" stroke-miterlimit="10" x1="350" y1="800" x2="350" y2="1000"/>
	<g>
		<defs>
			<path id="SVGID_5_" d="M190.98,879.74L550,700V501L50,751.019v181.44l540.739,270.146c1.938,11.261,16.555,20.744,36.47,24.996
				c0.027,0.006,0.179,0.013,0.206,0.019c0.84,0.178,1.753,0.346,2.612,0.506c0.064,0.012,0.157,0.025,0.222,0.037
				c0.814,0.149,1.655,0.288,2.485,0.42c0.112,0.019,0.229,0.039,0.342,0.057c0.771,0.121,1.556,0.229,2.339,0.334
				c0.178,0.023,0.354,0.052,0.531,0.075c0.778,0.101,1.567,0.188,2.358,0.273c0.186,0.02,0.369,0.045,0.557,0.063
				c0.744,0.077,1.498,0.141,2.252,0.203c0.24,0.02,0.477,0.045,0.719,0.063c0.7,0.054,1.409,0.094,2.118,0.136
				c0.3,0.018,0.596,0.041,0.897,0.057c0.729,0.037,1.467,0.061,2.204,0.084c0.285,0.01,0.565,0.025,0.852,0.033
				c1.025,0.025,1.558,0.039,2.597,0.039c26.593,0,49.5-8.652,56.5-20.631v99.99c-7,11.984-29.9,21.141-56.5,21.141
				c-33.137,0-59.5-13.5-59.5-29.5h-2v29.121L0,1625v650l709-354.048v-615.519v-100c1-1.764,1.5-3.577,1.5-5.434l1.201-59.899
				L190.98,879.74z"/>
		</defs>
		<clipPath id="SVGID_6_">
			<use xlink:href="#SVGID_5_"  overflow="visible"/>
		</clipPath>
		<g id="ball" clip-path="url(#SVGID_6_)">
			<circle fill="#00A99D" cx="451" cy="1075" r="50"/>
			<path opacity="0.2" d="M481.001,1034.999c6.277,8.357,9.999,18.743,9.999,30.001c0,27.615-22.385,50-50,50
				c-11.257,0-21.644-3.722-30-10c9.122,12.144,23.643,20,40,20c27.615,0,50-22.385,50-50
				C501,1058.643,493.145,1044.121,481.001,1034.999z"/>
		</g>
	</g>
	<polygon fill="#FFFF00" points="150,900.013 50.015,850 50,850.01 50,950 	"/>
	<g id="drag">
		<g opacity="0.2">
			<path fill="none" stroke="#FFFF00" stroke-width="2" stroke-miterlimit="10" stroke-dasharray="2,2" d="M50,1500
				c0,27.614,22.386,50,50,50h200c27.614,0,50-22.386,50-50v-200c0-27.614-22.386-50-50-50H100c-27.614,0-50,22.386-50,50V1500z"/>
		</g>
		<circle fill="#FFFF00" cx="100" cy="1300" r="50"/>
	</g>
	<polygon fill="#FFFF00" points="850,1350 750,1400 750,1300 850,1250 	"/>
</g>
<g id="letters">
	<text transform="matrix(1 0 0 1 272.8608 97.2871)" fill="#FFFFFF" font-family="'Knewave'" font-size="60">What’s SVG?</text>
	<text transform="matrix(1 0 0 1 500.9102 798.2666)" fill="#FFFFFF" font-family="'Knewave'" font-size="36">SVG Shape Elements</text>
	<rect x="176.667" y="138.279" fill="none" width="536" height="179.016"/>
	<text transform="matrix(1 0 0 1 225.9951 150.4375)"><tspan x="0" y="0" fill="#FFFFFF" font-family="'OpenSans-Light'" font-size="16">Scalable Vector Graphics (SVG) is an XML-based vector image</tspan><tspan x="86.348" y="25" fill="#FFFFFF" font-family="'OpenSans-Light'" font-size="16">format for two-dimensional graphics.</tspan><tspan x="58.562" y="75" fill="#FFFFFF" font-family="'OpenSans-Light'" font-size="16">An SVG image begins with an &lt;svg&gt; element:</tspan><tspan x="66.453" y="100" fill="#FFFFFF" font-family="'OpenSans-Bold'" font-size="16">&lt;svg width=&quot;800&quot; height=&quot;600&quot;&gt;&lt;/svg&gt;</tspan><tspan x="-47.098" y="125" fill="#FFFFFF" font-family="'OpenSans-Light'" font-size="16">The width and height attributes of the &lt;svg&gt; element define the width and </tspan><tspan x="130.637" y="150" fill="#FFFFFF" font-family="'OpenSans-Light'" font-size="16">height of the SVG image.</tspan></text>
	<g>
		<rect x="499.765" y="838.133" fill="none" width="349.735" height="173.203"/>
		<text transform="matrix(1 0 0 1 499.7637 850.2935)"><tspan x="0" y="0" fill="#FFFFFF" font-family="'OpenSans-Light'" font-size="16">SVG has some predefined shape elements that </tspan><tspan x="0" y="25" fill="#FFFFFF" font-family="'OpenSans-Light'" font-size="16">can be used by developers:</tspan><tspan x="0" y="75" fill="#FFFFFF" font-family="'OpenSans-Bold'" font-size="16">Rectangle &lt;rect&gt;</tspan><tspan x="0" y="100" fill="#FFFFFF" font-family="'OpenSans-Bold'" font-size="16">Circle &lt;circle&gt;</tspan><tspan x="0" y="125" fill="#FFFFFF" font-family="'OpenSans-Bold'" font-size="16">Ellipse &lt;ellipse&gt;</tspan><tspan x="0" y="150" fill="#FFFFFF" font-family="'OpenSans-Bold'" font-size="16">Line &lt;line&gt;</tspan></text>
	</g>
	<text transform="matrix(1 0 0 1 50.5508 1098.5059)" fill="#FFFFFF" font-family="'Knewave'" font-size="36">G &lt;g&gt;</text>
	<g>
		<rect x="49.413" y="1137.367" fill="none" width="365.587" height="77.633"/>
		<text transform="matrix(1 0 0 1 49.4131 1149.5273)"><tspan x="0" y="0" fill="#FFFFFF" font-family="'OpenSans-Light'" font-size="16">The g element is a container used to group </tspan><tspan x="0" y="25" fill="#FFFFFF" font-family="'OpenSans-Light'" font-size="16">objects. Transformations applied to the g element </tspan><tspan x="0" y="50" fill="#FFFFFF" font-family="'OpenSans-Light'" font-size="16">are performed on all of its child elements.</tspan></text>
	</g>
	<text transform="matrix(1 0 0 1 699.5 925.7354)"><tspan x="0" y="0" fill="#FFFFFF" font-family="'OpenSans-Bold'" font-size="16">Polyline &lt;polyline&gt;</tspan><tspan x="0" y="25" fill="#FFFFFF" font-family="'OpenSans-Bold'" font-size="16">Polygon &lt;polygon&gt;</tspan><tspan x="0" y="50" fill="#FFFFFF" font-family="'OpenSans-Bold'" font-size="16">Path &lt;path&gt;</tspan></text>
</g>
</svg>
